<svg xmlns="http://www.w3.org/2000/svg" width="640" height="480" viewBox="0 0 640 480">
  <defs>
    <linearGradient id="bg" x1="0" x2="1" y1="0" y2="1">
      <stop offset="0" stop-color="#e0f2fe"/>
      <stop offset="1" stop-color="#f8fafc"/>
    </linearGradient>
    <filter id="s" x="-20%" y="-20%" width="140%" height="140%">
      <feDropShadow dx="0" dy="6" stdDeviation="12" flood-color="#0ea5e9" flood-opacity="0.15"/>
    </filter>
  </defs>
  <rect width="100%" height="100%" fill="url(#bg)"/>
  <g filter="url(#s)">
    <path d="M210 140c40-28 180-28 220 0 24 16 26 84 26 84-28 6-40 28-44 48-6 34-18 78-34 92-20 18-80 18-100 0-16-14-28-58-34-92-4-20-16-42-44-48 0 0 2-68 26-84z" fill="#ffffff" stroke="#cbd5e1" stroke-width="3"/>
    <path d="M180 224c26 6 44 24 50 54 8 42 18 78 34 92 20 18 92 18 112 0 16-14 26-50 34-92 6-30 24-48 50-54" fill="none" stroke="#94a3b8" stroke-width="2"/>
    <path d="M240 250c40 0 54 28 80 28s40-28 80-28" fill="none" stroke="#0284c7" stroke-width="3"/>
    <path d="M220 280c70 0 70-40 110-40s40 40 110 40" fill="none" stroke="#0ea5e9" stroke-width="2" stroke-dasharray="6 6"/>
    <polyline points="180,224 200,224 210,218 220,226 230,220 240,232 250,228 260,236 270,230 280,238 290,232 300,240 310,234 320,242 330,236 340,244 350,238 360,246 370,240 380,248 390,242 400,250 410,244 420,252 430,246 440,254 450,248 460,256" fill="none" stroke="#0ea5e9" stroke-width="2"/>
  </g>
  <text x="50%" y="58" text-anchor="middle" font-family="Inter, system-ui" font-size="20" fill="#0f172a" opacity="0.7">Serenity Blue — Heartline Tee</text>
</svg>
